<svg id="Layer_5" data-name="Layer 5" xmlns="http://www.w3.org/2000/svg" xmlns:xlink="http://www.w3.org/1999/xlink" viewBox="0 0 1322.09 498.01"><defs><style>.cls-1{fill:#f0b3ff;}.cls-2{fill:#da71f4;}.cls-3{fill:#c538e8;}.cls-4{fill:#a830c6;}.cls-5{fill:#872a9e;}.cls-6{fill:url(#linear-gradient);}.cls-7,.cls-8{fill:#fff;}.cls-8{font-size:187px;stroke:#93278f;stroke-miterlimit:10;stroke-width:4px;font-family:KGBlankSpaceSolid, KG Blank Space Solid;}</style><linearGradient id="linear-gradient" x1="-53.33" y1="-122" x2="-52.35" y2="-122" gradientTransform="matrix(75, 99, 99, -75, 16151.75, -3612.81)" gradientUnits="userSpaceOnUse"><stop offset="0" stop-color="#cd00ff"/><stop offset="0" stop-color="#5c0970"/><stop offset="1" stop-color="#5c0970"/></linearGradient></defs><title>logo</title><path class="cls-1" d="M262.66,82V48l14-26,4-12s-2-4-6-4h-154V16l11,17,6,24Z"/><path class="cls-2" d="M261.66,127.17V91.58a10.94,10.94,0,0,0-1.16-4.9L246.77,59.21a11,11,0,0,0-6.6-5.58L200.53,41.57a10.93,10.93,0,0,0-3.78-.46c-7.11.39-22.81,4.6-27.08,2.89-1.59-.64-13.9-4.17-17.68-4.61a11,11,0,0,0-11.36,15.12l.53,1.27a11,11,0,0,1,.72,2.52l.79,19.7c-3.89-.31-1,5.53-1,6,.13,4.38,4.72,26.38,2,30-1.74,2.32-2.47,11.57-2.78,18.91a11,11,0,0,0,9,11.24l63.24,11.23a11,11,0,0,0,6.72-.94L255.52,137A11,11,0,0,0,261.66,127.17Z"/><path class="cls-3" d="M134.33,202.52l8.51-18.73a7.48,7.48,0,0,0,.64-3.76l-3.82-42.79a7.48,7.48,0,0,1,9.74-7.78l46.47,15a7.46,7.46,0,0,0,3.63.24c9.05-1.65,48.5-8.9,51.16-10.67a9,9,0,0,1,2.77-1.07,7.48,7.48,0,0,1,9.23,7.28v40a7.48,7.48,0,0,0,.82,3.41l19.06,37.16q.12.23.25.45L294.16,240a7.48,7.48,0,0,1-4.77,11.17c-8.64,1.92-19.91,4.59-21.73,5.8-2.58,1.72-100-5.45-127.09-7.48a7.47,7.47,0,0,1-6.91-7.46V205.62A7.48,7.48,0,0,1,134.33,202.52Z"/><path class="cls-4" d="M112,240.3l17.23-34.45a19.42,19.42,0,0,1,14.18-10.47l22.93-3.82a19.42,19.42,0,0,1,16.29,4.82L196.45,209a19.43,19.43,0,0,0,4.93,3.28L231.1,226a19.39,19.39,0,0,0,16.34,0c4.53-2.11,9.44-3.62,11.23-3,3,1,12.37,3.68,20,5.32A19.44,19.44,0,0,1,291,237.08L312.66,272l9.53,16.2q.47.8,1,1.54a19.42,19.42,0,0,1-14.33,30.77l-46,3.32a19.4,19.4,0,0,1-4.44-.19L120.83,301.82a19.42,19.42,0,0,1-9.23-4.13l-9.85-8a19.42,19.42,0,0,1-4.35-25.12l13.85-22.88Q111.66,241,112,240.3Z"/><path class="cls-5" d="M68.55,303.19l31.28-46.55a16.42,16.42,0,0,1,23.74-3.79L149.37,273a16.35,16.35,0,0,0,2.76,1.74l37.77,18.89a16.42,16.42,0,0,0,10,1.52l64.46-10.6a16.44,16.44,0,0,1,6.53.24l50.9,12.31a16.43,16.43,0,0,1,11.15,9.29l.18.41a16.39,16.39,0,0,0,1.25,2.3l29,44.53q.24.36.46.74l11.54,19.93a16.42,16.42,0,0,1-9.24,23.88L304.11,417.9a16.42,16.42,0,0,1-7,.64L125.16,396.7a16.43,16.43,0,0,1-9.44-4.58l-48.81-48C63,340.3,52.65,332.38,53.66,327L66,309.33A16.43,16.43,0,0,1,68.55,303.19Z"/><path class="cls-6" d="M56.65,327.15h0l32.76,25.3a46.13,46.13,0,0,0,36.46,8.88l47.36-8.61a46.13,46.13,0,0,1,18.78.47l44,10.32A46.15,46.15,0,0,1,255,373l17.55,14.62a46.13,46.13,0,0,0,57.15,1.52c17.9-13.37,37.58-27.87,38.35-27.57,1.43.56,32.57,54.44,22.57,86.44-7.73,24.73-27.6,36.36-40.32,39a45.69,45.69,0,0,1-10.38.93c-28.59-.68-191.65-4.14-236.3,4.07-49,9-73-11-81-18.26s-13-36.74-11-56.48,15.15-39.72,15.15-39.72l21.18-35.68,8.73-14.71"/><path class="cls-7" d="M151.29,33.06l3.63,9.09a4.76,4.76,0,0,1,.34,1.76V197.68a4.76,4.76,0,0,1-.68,2.46L123.36,252,50.61,367,39.1,386a4.76,4.76,0,0,0,8.09,5L163.51,207.13a4.76,4.76,0,0,0,.74-2.47l2.41-161.71a4.77,4.77,0,0,0-.22-1.51l-3.85-12.17a4.76,4.76,0,0,0-5.7-3.18l-2.33.58A4.76,4.76,0,0,0,151.29,33.06Z"/><path class="cls-7" d="M124.14,6v6H269.92v0h0v0h0a1.34,1.34,0,0,1,.38.17,10.06,10.06,0,0,1,2.38,2,3.93,3.93,0,0,1,.59.91.85.85,0,0,1,.09.34.61.61,0,0,1,0,.22,3.11,3.11,0,0,1-.46.79l4.8,3.6L273,16.18c-.08.1-4.92,6-9.87,13.37a101.51,101.51,0,0,0-6.95,11.9,45.17,45.17,0,0,0-2.48,6.16A21.85,21.85,0,0,0,252.66,54c0,1.36,0,4.18.07,8.17.33,27.87,1.68,112.3,1.9,126a13,13,0,0,0,1.89,6.54l125,205.43,0,0,2.65-1.69-2.66,1.67h0l2.65-1.69-2.66,1.67.1.16a61.11,61.11,0,0,1,4.71,10.16,62.18,62.18,0,0,1,3.9,21,48.71,48.71,0,0,1-1.69,12.86,47.58,47.58,0,0,1-6,13.34,41.49,41.49,0,0,1-7.27,8.43,60.86,60.86,0,0,1-17.06,10.42,111.58,111.58,0,0,1-27.8,7.21,128,128,0,0,1-16.25,1.2h-.47l0,1.66,0-1.66h0l0,1.66,0-1.66h-.07l-152.07,1H59.43l.08,2.22L59.45,486h0l.08,2.22L59.45,486h-.33a44.93,44.93,0,0,1-8.11-.86A50.8,50.8,0,0,1,40.58,482,43.29,43.29,0,0,1,24,469.63c-5-6.11-9.24-14.58-11.24-26.82a57.35,57.35,0,0,1-.78-9.17,40.27,40.27,0,0,1,1.33-10.58,255.86,255.86,0,0,1,11.05-32.32,189.35,189.35,0,0,1,13.93-27.22l104.43-169.7a13,13,0,0,0,1.93-6.8V55.87a12.94,12.94,0,0,0-.42-3.26h0a133.43,133.43,0,0,0-5.34-16.08A73.81,73.81,0,0,0,133.7,26a39.59,39.59,0,0,0-3.39-4.75,24.06,24.06,0,0,0-4.23-4h0a8.5,8.5,0,0,1-1.46-1.32,5.52,5.52,0,0,1-.87-1.35,7.85,7.85,0,0,1-.43-1.21,3.31,3.31,0,0,1-.12-.8.75.75,0,0,1,0-.16l-.15,0,.14.07v0l-.15,0,.14.07-.16-.07.14.1v0l-.16-.07.14.1.09-.09a2.61,2.61,0,0,1,.44-.3h0a.91.91,0,0,1,.43-.09V0a12.86,12.86,0,0,0-6.38,1.67h0a14.31,14.31,0,0,0-2.87,2.14A12,12,0,0,0,112,8.08a12.37,12.37,0,0,0-.83,4.52,15.19,15.19,0,0,0,.5,3.8,19.76,19.76,0,0,0,1.09,3.09,17.51,17.51,0,0,0,2.73,4.29A20.47,20.47,0,0,0,119,27h0a12.26,12.26,0,0,1,2.1,2,35.06,35.06,0,0,1,4.07,6.39,89.82,89.82,0,0,1,4.93,11.95c1.28,3.76,2.14,6.91,2.5,8.3h0l0,.24V187a1,1,0,0,1-.15.51L28.09,357.24a201.34,201.34,0,0,0-14.81,29A268.13,268.13,0,0,0,1.75,419.92,52.24,52.24,0,0,0,0,433.64a69.31,69.31,0,0,0,.94,11.09c2,12.49,6.27,22.3,11.72,29.81a54.58,54.58,0,0,0,13.61,13.22,60,60,0,0,0,20.56,8.77A58.19,58.19,0,0,0,59.13,498h.76l-.23-6v6h102l152-1,0-6-.11,6h.68a145,145,0,0,0,33.33-4.26,97.92,97.92,0,0,0,24.5-9.56,66.11,66.11,0,0,0,11.29-8.06,53.49,53.49,0,0,0,9.35-10.87,59.61,59.61,0,0,0,7.48-16.68,60.71,60.71,0,0,0,2.11-16,74.71,74.71,0,0,0-5.22-26.72,67.87,67.87,0,0,0-5.35-11L386.66,397l5.13-3.12-125-205.38a1,1,0,0,1-.14-.49c-.13-7.84-.62-38.78-1.08-69-.23-15.13-.45-30.1-.62-41.93-.08-5.91-.15-11-.2-15s-.07-6.8-.07-8a10.38,10.38,0,0,1,.55-2.85,45.06,45.06,0,0,1,3.86-8.37,134.8,134.8,0,0,1,8.62-13c1.33-1.8,2.49-3.3,3.31-4.34l1-1.2.25-.31.06-.07v0h0l.09-.11.08-.11a15,15,0,0,0,2.16-4,12.62,12.62,0,0,0,.75-4.25,12.81,12.81,0,0,0-1.1-5.15A16.8,16.8,0,0,0,280.51,5a22.6,22.6,0,0,0-4-3.08,13.5,13.5,0,0,0-3-1.35A12.16,12.16,0,0,0,269.92,0H124.14Z"/><text class="cls-8" transform="translate(58.66 442)">Drug Search</text></svg>