<svg id="Layer_5" data-name="Layer 5" xmlns="http://www.w3.org/2000/svg" viewBox="0 0 1361.82 512.3">
  <title>logo-lite</title>
  <path d="M262.66,82V48l14-26,4-12s-2-4-6-4h-154V16l11,17,6,24Z" style="fill: #f7d7ff"/>
  <path d="M261.66,127.17V91.58a10.94,10.94,0,0,0-1.16-4.9L246.77,59.21a11,11,0,0,0-6.6-5.58L200.53,41.57a10.93,10.93,0,0,0-3.78-.46c-7.11.39-22.81,4.6-27.08,2.89-1.59-.64-13.9-4.17-17.68-4.61a11,11,0,0,0-11.36,15.12l.53,1.27a11,11,0,0,1,.72,2.52l.79,19.7c-3.89-.31-1,5.53-1,6,.13,4.38,4.72,26.38,2,30-1.74,2.32-2.47,11.57-2.78,18.91a11,11,0,0,0,9,11.24l63.24,11.23a11,11,0,0,0,6.72-.94L255.52,137A11,11,0,0,0,261.66,127.17Z" style="fill: #f7e6fe"/>
  <path d="M134.33,202.52l8.51-18.73a7.48,7.48,0,0,0,.64-3.76l-3.82-42.79a7.48,7.48,0,0,1,9.74-7.78l46.47,15a7.46,7.46,0,0,0,3.63.24c9.05-1.65,48.5-8.9,51.16-10.67a9,9,0,0,1,2.77-1.07,7.48,7.48,0,0,1,9.23,7.28v40a7.48,7.48,0,0,0,.82,3.41l19.06,37.16q.12.23.25.45L294.16,240a7.48,7.48,0,0,1-4.77,11.17c-8.64,1.92-19.91,4.59-21.73,5.8-2.58,1.72-100-5.45-127.09-7.48a7.47,7.47,0,0,1-6.91-7.46V205.62A7.48,7.48,0,0,1,134.33,202.52Z" style="fill: #ebbcfc"/>
  <path d="M112,240.3l17.23-34.45a19.42,19.42,0,0,1,14.18-10.47l22.93-3.82a19.42,19.42,0,0,1,16.29,4.82L196.45,209a19.43,19.43,0,0,0,4.93,3.28L231.1,226a19.39,19.39,0,0,0,16.34,0c4.53-2.11,9.44-3.62,11.23-3,3,1,12.37,3.68,20,5.32A19.44,19.44,0,0,1,291,237.08L312.66,272l9.53,16.2q.47.8,1,1.54a19.42,19.42,0,0,1-14.33,30.77l-46,3.32a19.4,19.4,0,0,1-4.44-.19L120.83,301.82a19.42,19.42,0,0,1-9.23-4.13l-9.85-8a19.42,19.42,0,0,1-4.35-25.12l13.85-22.88Q111.66,241,112,240.3Z" style="fill: #e6acfb"/>
  <path d="M68.55,303.19l31.28-46.55a16.42,16.42,0,0,1,23.74-3.79L149.37,273a16.35,16.35,0,0,0,2.76,1.74l37.77,18.89a16.42,16.42,0,0,0,10,1.52l64.46-10.6a16.44,16.44,0,0,1,6.53.24l50.9,12.31a16.43,16.43,0,0,1,11.15,9.29l.18.41a16.39,16.39,0,0,0,1.25,2.3l29,44.53q.24.36.46.74l11.54,19.93a16.42,16.42,0,0,1-9.24,23.88L304.11,417.9a16.42,16.42,0,0,1-7,.64L125.16,396.7a16.43,16.43,0,0,1-9.44-4.58l-48.81-48C63,340.3,52.65,332.38,53.66,327L66,309.33A16.43,16.43,0,0,1,68.55,303.19Z" style="fill: #d064f8"/>
  <path d="M56.65,327.15h0l32.76,25.3a46.13,46.13,0,0,0,36.46,8.88l47.36-8.61a46.13,46.13,0,0,1,18.78.47l44,10.32A46.15,46.15,0,0,1,255,373l17.55,14.62a46.13,46.13,0,0,0,57.15,1.52c17.9-13.37,37.58-27.87,38.35-27.57,1.43.56,32.57,54.44,22.57,86.44-7.73,24.73-27.6,36.36-40.32,39a45.69,45.69,0,0,1-10.38.93c-28.59-.68-191.65-4.14-236.3,4.07-49,9-73-11-81-18.26s-13-36.74-11-56.48,15.15-39.72,15.15-39.72l21.18-35.68,8.73-14.71" style="fill: #c94ef7"/>
  <path d="M151.29,33.06l3.63,9.09a4.76,4.76,0,0,1,.34,1.76V197.68a4.76,4.76,0,0,1-.68,2.46L123.36,252,50.61,367,39.1,386a4.76,4.76,0,0,0,8.09,5L163.51,207.13a4.76,4.76,0,0,0,.74-2.47l2.41-161.71a4.77,4.77,0,0,0-.22-1.51l-3.85-12.17a4.76,4.76,0,0,0-5.7-3.18l-2.33.58A4.76,4.76,0,0,0,151.29,33.06Z" style="fill: #fff"/>
  <path d="M124.14,6v6H269.92v0h0v0h0a1.34,1.34,0,0,1,.38.17,10.06,10.06,0,0,1,2.38,2,3.93,3.93,0,0,1,.59.91.85.85,0,0,1,.09.34.61.61,0,0,1,0,.22,3.11,3.11,0,0,1-.46.79l4.8,3.6L273,16.18c-.08.1-4.92,6-9.87,13.37a101.51,101.51,0,0,0-6.95,11.9,45.17,45.17,0,0,0-2.48,6.16A21.85,21.85,0,0,0,252.66,54c0,1.36,0,4.18.07,8.17.33,27.87,1.68,112.3,1.9,126a13,13,0,0,0,1.89,6.54l125,205.43,0,0,2.65-1.69-2.66,1.67h0l2.65-1.69-2.66,1.67.1.16a61.11,61.11,0,0,1,4.71,10.16,62.18,62.18,0,0,1,3.9,21,48.71,48.71,0,0,1-1.69,12.86,47.58,47.58,0,0,1-6,13.34,41.49,41.49,0,0,1-7.27,8.43,60.86,60.86,0,0,1-17.06,10.42,111.58,111.58,0,0,1-27.8,7.21,128,128,0,0,1-16.25,1.2h-.47l0,1.66,0-1.66h0l0,1.66,0-1.66h-.07l-152.07,1H59.43l.08,2.22L59.45,486h0l.08,2.22L59.45,486h-.33a44.93,44.93,0,0,1-8.11-.86A50.8,50.8,0,0,1,40.58,482,43.29,43.29,0,0,1,24,469.63c-5-6.11-9.24-14.58-11.24-26.82a57.35,57.35,0,0,1-.78-9.17,40.27,40.27,0,0,1,1.33-10.58,255.86,255.86,0,0,1,11.05-32.32,189.35,189.35,0,0,1,13.93-27.22l104.43-169.7a13,13,0,0,0,1.93-6.8V55.87a12.94,12.94,0,0,0-.42-3.26h0a133.43,133.43,0,0,0-5.34-16.08A73.81,73.81,0,0,0,133.7,26a39.59,39.59,0,0,0-3.39-4.75,24.06,24.06,0,0,0-4.23-4h0a8.5,8.5,0,0,1-1.46-1.32,5.52,5.52,0,0,1-.87-1.35,7.85,7.85,0,0,1-.43-1.21,3.31,3.31,0,0,1-.12-.8.75.75,0,0,1,0-.16l-.15,0,.14.07v0l-.15,0,.14.07-.16-.07.14.1v0l-.16-.07.14.1.09-.09a2.61,2.61,0,0,1,.44-.3h0a.91.91,0,0,1,.43-.09V0a12.86,12.86,0,0,0-6.38,1.67h0a14.31,14.31,0,0,0-2.87,2.14A12,12,0,0,0,112,8.08a12.37,12.37,0,0,0-.83,4.52,15.19,15.19,0,0,0,.5,3.8,19.76,19.76,0,0,0,1.09,3.09,17.51,17.51,0,0,0,2.73,4.29A20.47,20.47,0,0,0,119,27h0a12.26,12.26,0,0,1,2.1,2,35.06,35.06,0,0,1,4.07,6.39,89.82,89.82,0,0,1,4.93,11.95c1.28,3.76,2.14,6.91,2.5,8.3h0l0,.24V187a1,1,0,0,1-.15.51L28.09,357.24a201.34,201.34,0,0,0-14.81,29A268.13,268.13,0,0,0,1.75,419.92,52.24,52.24,0,0,0,0,433.64a69.31,69.31,0,0,0,.94,11.09c2,12.49,6.27,22.3,11.72,29.81a54.58,54.58,0,0,0,13.61,13.22,60,60,0,0,0,20.56,8.77A58.19,58.19,0,0,0,59.13,498h.76l-.23-6v6h102l152-1,0-6-.11,6h.68a145,145,0,0,0,33.33-4.26,97.92,97.92,0,0,0,24.5-9.56,66.11,66.11,0,0,0,11.29-8.06,53.49,53.49,0,0,0,9.35-10.87,59.61,59.61,0,0,0,7.48-16.68,60.71,60.71,0,0,0,2.11-16,74.71,74.71,0,0,0-5.22-26.72,67.87,67.87,0,0,0-5.35-11L386.66,397l5.13-3.12-125-205.38a1,1,0,0,1-.14-.49c-.13-7.84-.62-38.78-1.08-69-.23-15.13-.45-30.1-.62-41.93-.08-5.91-.15-11-.2-15s-.07-6.8-.07-8a10.38,10.38,0,0,1,.55-2.85,45.06,45.06,0,0,1,3.86-8.37,134.8,134.8,0,0,1,8.62-13c1.33-1.8,2.49-3.3,3.31-4.34l1-1.2.25-.31.06-.07v0h0l.09-.11.08-.11a15,15,0,0,0,2.16-4,12.62,12.62,0,0,0,.75-4.25,12.81,12.81,0,0,0-1.1-5.15A16.8,16.8,0,0,0,280.51,5a22.6,22.6,0,0,0-4-3.08,13.5,13.5,0,0,0-3-1.35A12.16,12.16,0,0,0,269.92,0H124.14Z" style="fill: #fff"/>
  <g>
    <path d="M225.65,386.1a81,81,0,0,1-3.2,25.57,71.7,71.7,0,0,1-27.53,38.44,91.5,91.5,0,0,1-22.64,11.69,114.88,114.88,0,0,1-27.39,5.94,147.1,147.1,0,0,1-31.36-.46V305a177.68,177.68,0,0,1,29.72-.41,119.63,119.63,0,0,1,26.48,4.84,89.57,89.57,0,0,1,22.37,10.32,68.9,68.9,0,0,1,17.39,16.07,74.68,74.68,0,0,1,11.46,22.05A100.52,100.52,0,0,1,225.65,386.1Zm-28.31,6.57a74.47,74.47,0,0,0-2.69-21.41,50.58,50.58,0,0,0-9.4-18.35,50,50,0,0,0-17.08-13.29q-10.55-5.2-25.7-6.3l.64,108.93a69.11,69.11,0,0,0,22.1-5,56,56,0,0,0,17-10.82,48.4,48.4,0,0,0,11-15.29A46.25,46.25,0,0,0,197.34,392.67Z" style="fill: #fff;stroke: #c94ef7;stroke-miterlimit: 10;stroke-width: 4px"/>
    <path d="M271,356.06a42.18,42.18,0,0,1,9.18-4.11,60.13,60.13,0,0,1,11.46-2.47,70.49,70.49,0,0,1,12.74-.32,62.81,62.81,0,0,1,13,2.19,55.35,55.35,0,0,1,12.19,5,42.49,42.49,0,0,1,10.46,8.26l-13.33,23.47a36.16,36.16,0,0,0-10.32-6,50,50,0,0,0-11.23-2.83,48.49,48.49,0,0,0-11.09-.18,46,46,0,0,0-10,2.05,28.82,28.82,0,0,0-7.76,3.83,13.18,13.18,0,0,0-4.52,5.16l1,79.8H240.44q.09-3.65.09-10.18V388.15q0-9.45,0-17.39t0-13.83v-8.63H271.3Z" style="fill: #fff;stroke: #c94ef7;stroke-miterlimit: 10;stroke-width: 4px"/>
    <path d="M421.5,460.24q-1.46.73-2.92,1.37t-3,1.28q-15.16,6.12-26.66,6.39t-19.59-5.57q-8.08-5.84-12.69-18.08t-5.89-31.23q-.46-6.57-.68-15.16t-.32-18q-.09-9.45.09-19.08t.55-18.31H380.6q-.18,5.66-.41,11.73t-.41,12.28q-.18,6.21-.32,12.24t-.18,11.46q0,5.43,0,10t.27,8a81.48,81.48,0,0,0,2.15,15.07,20.12,20.12,0,0,0,5,9.54,12.8,12.8,0,0,0,8.81,3.56q5.43.23,13.65-3a47.39,47.39,0,0,0,12.05-6.57l-.46-84.37h32.42q-.09,4-.09,11t0,15.89q0,8.9,0,19t0,20.36q0,10.23,0,19.91t0,17.71q0,8-.09,13.74t-.14,7.9H421.78Z" style="fill: #fff;stroke: #c94ef7;stroke-miterlimit: 10;stroke-width: 4px"/>
    <path d="M578.46,342.72q.27,17.08.73,33.6t.46,32.32q0,15.8-.73,30.82t-2.83,29.08a49.69,49.69,0,0,1-6.3,18.35,44.62,44.62,0,0,1-12,13.24A50.16,50.16,0,0,1,541.39,508a67,67,0,0,1-19.72,2.28A118.54,118.54,0,0,1,503,508.5a85.32,85.32,0,0,1-13.92-3.7A50.09,50.09,0,0,1,479.3,500a36.08,36.08,0,0,1-6.3-5l16.25-25.66a34.22,34.22,0,0,0,9.54,6.3,49.15,49.15,0,0,0,11.73,3.65,45.31,45.31,0,0,0,12.14.55,29.1,29.1,0,0,0,10.87-3.06,21.64,21.64,0,0,0,8-7.12A21.89,21.89,0,0,0,545,458a47.81,47.81,0,0,1-9.86,3.2A58.28,58.28,0,0,1,524,462.34a62.13,62.13,0,0,1-21-3.15,54.13,54.13,0,0,1-16.3-8.86,50.45,50.45,0,0,1-11.6-13.19,60.29,60.29,0,0,1-6.85-16.07A68.31,68.31,0,0,1,466,403.58a65.09,65.09,0,0,1,2.37-17.53,63.65,63.65,0,0,1,7-16.12,52.27,52.27,0,0,1,27.53-22.28,60.06,60.06,0,0,1,20.45-3.29,53.72,53.72,0,0,1,12.24,1.32,51.28,51.28,0,0,1,10.59,3.7v-1.74q0-.91,0-1.92t.14-1.87a2.85,2.85,0,0,1,.27-1.14Zm-58.71,32.6a26,26,0,0,0-11.14,3,25.14,25.14,0,0,0-7.9,6.67A28.38,28.38,0,0,0,496,394a33.4,33.4,0,0,0-1.51,10.23,31.51,31.51,0,0,0,1.78,10.18,27.15,27.15,0,0,0,5.07,8.86,24.79,24.79,0,0,0,8.36,6.25,27.27,27.27,0,0,0,11.78,2.38,25.93,25.93,0,0,0,11.64-2.47,23.69,23.69,0,0,0,8.22-6.57,27.67,27.67,0,0,0,4.79-9.31A32.93,32.93,0,0,0,547.51,403a35,35,0,0,0-2-10.55,27.37,27.37,0,0,0-5.3-9.08,24.26,24.26,0,0,0-8.58-6.16A25.86,25.86,0,0,0,519.75,375.32Z" style="fill: #fff;stroke: #c94ef7;stroke-miterlimit: 10;stroke-width: 4px"/>
    <path d="M738.25,393.22A73.28,73.28,0,0,1,748,406.64a61.4,61.4,0,0,1,6,14.84,49.7,49.7,0,0,1,1.51,15.38,41.75,41.75,0,0,1-3.74,15,27.11,27.11,0,0,1-6.44,8.9,37.44,37.44,0,0,1-9.13,6.12,45.88,45.88,0,0,1-10.73,3.56,56.81,56.81,0,0,1-11.23,1.14,60,60,0,0,1-15.75-2.19,74.49,74.49,0,0,1-15.61-6.21,73.58,73.58,0,0,1-14.06-9.77,65.56,65.56,0,0,1-11.28-12.87l19.81-19.08a47.27,47.27,0,0,0,7.21,8,60.27,60.27,0,0,0,8.58,6.39,47,47,0,0,0,9,4.34,33,33,0,0,0,8.67,1.87,13.62,13.62,0,0,0,6.21-.78,9.56,9.56,0,0,0,4-2.92,11.24,11.24,0,0,0,2.05-4.34,19.05,19.05,0,0,0,.5-5.11,19.63,19.63,0,0,0-.91-5.25,24.68,24.68,0,0,0-2-4.7,43,43,0,0,0-7.3-8.95q-4.66-4.47-10.27-9t-11.69-9.13q-6.07-4.61-11.6-9.45a118.15,118.15,0,0,1-10-9.86,41.3,41.3,0,0,1-7-10.41,39.08,39.08,0,0,1-3.65-18.31,39.75,39.75,0,0,1,4.84-17.3,40.56,40.56,0,0,1,8.49-10.91,42.14,42.14,0,0,1,11-7.21,47.53,47.53,0,0,1,12.74-3.65,56.08,56.08,0,0,1,13.56-.27,58.65,58.65,0,0,1,13.42,3,56.49,56.49,0,0,1,12.33,6,69.53,69.53,0,0,1,5.89,4.34q3.33,2.69,6.67,5.75t6.16,6a40.12,40.12,0,0,1,4.29,5.16L734.87,353a52.69,52.69,0,0,0-8.54-9.54,44.84,44.84,0,0,0-9.08-6.16,34.33,34.33,0,0,0-8.86-3.1,23.77,23.77,0,0,0-7.81-.32,13.57,13.57,0,0,0-6,2.24,8.3,8.3,0,0,0-3.29,4.38,10,10,0,0,0,.5,7.17,29.43,29.43,0,0,0,5.11,7.67,95.39,95.39,0,0,0,8.45,8.31q4.93,4.34,10.55,9t11.37,9.82A152.92,152.92,0,0,1,738.25,393.22Z" style="fill: #fff;stroke: #c94ef7;stroke-miterlimit: 10;stroke-width: 4px"/>
    <path d="M887.09,445.81a66.3,66.3,0,0,1-13.65,11.37A84,84,0,0,1,857.59,465,85.66,85.66,0,0,1,841,469.28a74.72,74.72,0,0,1-15.84.82,62.65,62.65,0,0,1-21.64-4.93,55.5,55.5,0,0,1-18.08-12.28,57.28,57.28,0,0,1-12.28-19.27,66.45,66.45,0,0,1-4.25-26,72.3,72.3,0,0,1,7.26-30.59,68.87,68.87,0,0,1,8.67-13.51,56.43,56.43,0,0,1,12-11,59.5,59.5,0,0,1,15.39-7.4A65,65,0,0,1,831,342.27a51.92,51.92,0,0,1,18.72,3,46.67,46.67,0,0,1,14.56,8.58,51.06,51.06,0,0,1,10.55,12.87,70,70,0,0,1,6.71,15.8A84.43,84.43,0,0,1,884.62,400a91.41,91.41,0,0,1-.46,17.81l-85.46.27a36.37,36.37,0,0,0,4.38,10.73,33.25,33.25,0,0,0,6.76,7.94,28.43,28.43,0,0,0,8.49,5,29.25,29.25,0,0,0,9.77,1.83,47.32,47.32,0,0,0,8.81-.91,52,52,0,0,0,9.68-2.88,56.84,56.84,0,0,0,9.45-4.88,40.08,40.08,0,0,0,8.13-6.85ZM855.86,389a20.82,20.82,0,0,0-2.74-7.53,19.68,19.68,0,0,0-5-5.48,23.8,23.8,0,0,0-6.71-3.47,30.77,30.77,0,0,0-7.62-1.51,34.1,34.1,0,0,0-9.59.64,34.65,34.65,0,0,0-9,3.2,27.81,27.81,0,0,0-7.4,5.57,20.56,20.56,0,0,0-4.66,7.85Z" style="fill: #fff;stroke: #c94ef7;stroke-miterlimit: 10;stroke-width: 4px"/>
    <path d="M1012.63,469.37H980.22v-7.21a44.83,44.83,0,0,1-24.56,7.67,56.63,56.63,0,0,1-17.17-2.28,51,51,0,0,1-14-6.62,49.21,49.21,0,0,1-10.82-10A60.93,60.93,0,0,1,906,438.32a72.29,72.29,0,0,1-4.79-14.15,79.81,79.81,0,0,1-2-14.88,75.52,75.52,0,0,1,1.14-15.89,70.2,70.2,0,0,1,4.47-15.16,60.52,60.52,0,0,1,7.85-13.42A51.94,51.94,0,0,1,924,354a52.6,52.6,0,0,1,14.61-7.12,59.41,59.41,0,0,1,17.9-2.56,58.49,58.49,0,0,1,13.24,1.6,49,49,0,0,1,11.41,4.34v-1.46q0-1.1,0-2.28c0-.79,0-1.52,0-2.19v-1.28h30.86Zm-59.72-94A21.2,21.2,0,0,0,943,378a23.19,23.19,0,0,0-7.53,6.89,32.1,32.1,0,0,0-4.7,10.32,42.81,42.81,0,0,0-1.32,12.88,43.1,43.1,0,0,0,2.79,13.79,40.28,40.28,0,0,0,3.24,6.62,26,26,0,0,0,4.52,5.57,21.25,21.25,0,0,0,5.89,3.88,17.78,17.78,0,0,0,7.3,1.46,22.76,22.76,0,0,0,11.78-3,27.64,27.64,0,0,0,8.58-7.9,37.21,37.21,0,0,0,5.29-11,42.56,42.56,0,0,0,1.83-12.23,36,36,0,0,0-1.83-11.37,29.41,29.41,0,0,0-5.39-9.77,25.69,25.69,0,0,0-8.72-6.71A24,24,0,0,0,952.92,375.32Z" style="fill: #fff;stroke: #c94ef7;stroke-miterlimit: 10;stroke-width: 4px"/>
    <path d="M1058,356.06a42.18,42.18,0,0,1,9.18-4.11,60.13,60.13,0,0,1,11.46-2.47,70.49,70.49,0,0,1,12.74-.32,62.81,62.81,0,0,1,13,2.19,55.36,55.36,0,0,1,12.19,5,42.49,42.49,0,0,1,10.46,8.26l-13.33,23.47a36.15,36.15,0,0,0-10.32-6,50,50,0,0,0-11.23-2.83,48.49,48.49,0,0,0-11.09-.18,46,46,0,0,0-10,2.05,28.83,28.83,0,0,0-7.76,3.83,13.18,13.18,0,0,0-4.52,5.16l1,79.8h-32.42q.09-3.65.09-10.18V388.15q0-9.45,0-17.39t0-13.83v-8.63h30.86Z" style="fill: #fff;stroke: #c94ef7;stroke-miterlimit: 10;stroke-width: 4px"/>
    <path d="M1245.2,439.42a56.23,56.23,0,0,1-9.31,11,66.11,66.11,0,0,1-12,8.72,62.93,62.93,0,0,1-13.74,5.8,55.15,55.15,0,0,1-14.75,2.19,59.86,59.86,0,0,1-21-3.29,53.11,53.11,0,0,1-16.3-9.27,52.57,52.57,0,0,1-11.6-13.79,64.22,64.22,0,0,1-6.85-16.75,74.23,74.23,0,0,1-2.24-18.26,70.74,70.74,0,0,1,2.37-18.31,68.63,68.63,0,0,1,7-16.85,53.8,53.8,0,0,1,11.5-13.88,52.61,52.61,0,0,1,16-9.36,57.88,57.88,0,0,1,20.45-3.42,63.49,63.49,0,0,1,15.07,1.73,49.79,49.79,0,0,1,13.38,5.39,51.72,51.72,0,0,1,11.64,9.41,68.6,68.6,0,0,1,9.86,13.88l-27.39,13.15a19,19,0,0,0-4-5,28,28,0,0,0-6.12-4.2,34.78,34.78,0,0,0-7.53-2.79,26.06,26.06,0,0,0-8.45-.64,24.38,24.38,0,0,0-11.09,3.38,26.65,26.65,0,0,0-7.94,7.35,31.91,31.91,0,0,0-4.7,10,39.89,39.89,0,0,0-1.51,11.19,36.32,36.32,0,0,0,1.78,11,30.17,30.17,0,0,0,5.07,9.54,24.73,24.73,0,0,0,20.13,9.41,32,32,0,0,0,7.58-1,34.07,34.07,0,0,0,7.62-2.88,35,35,0,0,0,6.94-4.75,28,28,0,0,0,5.52-6.57Z" style="fill: #fff;stroke: #c94ef7;stroke-miterlimit: 10;stroke-width: 4px"/>
    <path d="M1288,359.07q1.46-.73,2.92-1.37t3-1.28q15.16-6.12,26.66-6.39t19.58,5.57q8.08,5.84,12.69,18.08t5.89,31.23q.46,6.57.69,14.15t.32,15.8q.09,8.22-.09,16.89t-.55,17.26h-30.22q.36-8.4.68-16.8t.5-16.16q.18-7.76.14-14.47t-.32-11.82a81.68,81.68,0,0,0-2.15-15.07,20.17,20.17,0,0,0-5-9.54,12.82,12.82,0,0,0-8.81-3.56q-5.43-.23-13.65,3a47.48,47.48,0,0,0-12.05,6.57l.46,77.89h-32.41q0-3.19,0-9.45t.09-14.7q0-8.44,0-18.58V405.18q0-11,0-22.23t0-21.91q0-10.64,0-20.23t0-17.21q0-7.62,0-12.74t.14-6.94h30.86Z" style="fill: #fff;stroke: #c94ef7;stroke-miterlimit: 10;stroke-width: 4px"/>
  </g>
</svg>
