<?xml version="1.0" encoding="iso-8859-1"?>
<!-- Generator: Adobe Illustrator 19.0.0, SVG Export Plug-In . SVG Version: 6.00 Build 0)  -->
<svg version="1.1" id="Capa_1" xmlns="http://www.w3.org/2000/svg" xmlns:xlink="http://www.w3.org/1999/xlink" x="0px" y="0px"
	 viewBox="0 0 512 512" style="enable-background:new 0 0 512 512;" xml:space="preserve">
<path style="fill:#FE7C7A;" d="M430,424.07V30c0-11.046-8.954-20-20-20H66c-19.882,0-36,16.118-36,36v420L430,424.07z"/>
<path style="fill:#FEA3A2;" d="M410,10H84v425.71h234.96H430V30C430,18.954,421.046,10,410,10z"/>
<path style="fill:#FFFFFF;" d="M430,430H66c-19.882,0-36,16.118-36,36l0,0c0,19.882,16.118,36,36,36h344c11.046,0,20-8.954,20-20
	V430z"/>
<path style="fill:#ECF2FF;" d="M462,160h-32V64h32c11.046,0,20,8.954,20,20v56C482,151.046,473.046,160,462,160z"/>
<path style="fill:#FEA3A2;" d="M462,256h-32v-96h32c11.046,0,20,8.954,20,20v56C482,247.046,473.046,256,462,256z"/>
<path style="fill:#C6EF9A;" d="M462,352h-32v-96h32c11.046,0,20,8.954,20,20v56C482,343.046,473.046,352,462,352z"/>
<circle style="fill:#FEE891;" cx="257" cy="187.59" r="104"/>
<path style="fill:#FFFFFF;" d="M300.354,144.237L300.354,144.237c-11.528-11.528-30.22-11.528-41.748,0l-44.959,44.959
	c-11.528,11.528-11.528,30.22,0,41.748l0,0c11.528,11.528,30.22,11.528,41.748,0l44.959-44.959
	C311.882,174.456,311.882,155.765,300.354,144.237z"/>
<path style="fill:#C6EF9A;" d="M236.126,166.717l41.748,41.748l22.48-22.48c11.528-11.528,11.528-30.22,0-41.748
	s-30.22-11.528-41.748,0L236.126,166.717z"/>
<path d="M492,84c0-16.542-13.458-30-30-30h-22V30c0-16.542-13.458-30-30-30H66C40.636,0,20,20.636,20,46v420
	c0,25.364,20.636,46,46,46h344c16.542,0,30-13.458,30-30v-52v-68h22c16.542,0,30-13.458,30-30v-56c0-7.678-2.902-14.688-7.664-20
	c4.761-5.312,7.664-12.322,7.664-20v-56c0-7.678-2.902-14.688-7.664-20c4.761-5.312,7.664-12.322,7.664-20V84z M462,74
	c5.514,0,10,4.486,10,10v56c0,5.514-4.486,10-10,10h-22V74H462z M472,180v56c0,5.514-4.486,10-10,10h-22v-76h22
	C467.514,170,472,174.486,472,180z M420,30v390H94V20h316C415.514,20,420,24.486,420,30z M66,20h8v400h-8
	c-9.643,0-18.598,2.988-26,8.08V46C40,31.664,51.664,20,66,20z M420,482c0,5.514-4.486,10-10,10H66c-14.337,0-26-11.664-26-26
	s11.663-26,26-26h354V482z M472,332c0,5.514-4.486,10-10,10h-22v-76h22c5.514,0,10,4.486,10,10V332z"/>
<path d="M234.521,249.572c10.12,0,20.24-3.853,27.945-11.557l44.959-44.959c15.409-15.409,15.409-40.481,0-55.891
	c-15.41-15.408-40.48-15.409-55.891,0l-44.959,44.959c-15.409,15.409-15.409,40.481,0,55.891
	C214.28,245.72,224.4,249.572,234.521,249.572z M265.677,151.308c3.806-3.806,8.804-5.708,13.803-5.708s9.997,1.903,13.803,5.708
	c7.611,7.611,7.611,19.995,0,27.606l-15.408,15.408l-27.606-27.606L265.677,151.308z M220.718,196.267l15.408-15.408l27.606,27.606
	l-15.408,15.408c-7.611,7.611-19.994,7.611-27.605,0C213.106,216.262,213.106,203.878,220.718,196.267z"/>
<path d="M257,301.59c62.859,0,114-51.14,114-114s-51.141-114-114-114s-114,51.14-114,114S194.141,301.59,257,301.59z M257,93.59
	c51.832,0,94,42.168,94,94s-42.168,94-94,94s-94-42.168-94-94S205.168,93.59,257,93.59z"/>
<path d="M299.639,336c0-5.523-4.478-10-10-10h-99.333c-5.522,0-10,4.477-10,10s4.478,10,10,10h99.333
	C295.161,346,299.639,341.523,299.639,336z"/>
<path d="M326.31,326c-2.64,0-5.21,1.07-7.08,2.93c-1.859,1.86-2.92,4.44-2.92,7.07s1.061,5.21,2.92,7.07
	c1.87,1.86,4.44,2.93,7.08,2.93c2.63,0,5.2-1.07,7.07-2.93c1.86-1.86,2.93-4.44,2.93-7.07s-1.069-5.21-2.93-7.07
	C331.51,327.07,328.939,326,326.31,326z"/>
<path d="M300.759,366h-84.907c-5.522,0-10,4.477-10,10s4.478,10,10,10h84.907c5.522,0,10-4.477,10-10S306.281,366,300.759,366z"/>
<g>
</g>
<g>
</g>
<g>
</g>
<g>
</g>
<g>
</g>
<g>
</g>
<g>
</g>
<g>
</g>
<g>
</g>
<g>
</g>
<g>
</g>
<g>
</g>
<g>
</g>
<g>
</g>
<g>
</g>
</svg>
